<?xml version="1.0" standalone="no"?>
<!DOCTYPE svg PUBLIC "-//W3C//DTD SVG 20010904//EN"
 "http://www.w3.org/TR/2001/REC-SVG-20010904/DTD/svg10.dtd">
<svg version="1.0" xmlns="http://www.w3.org/2000/svg"
 width="4078.000000pt" height="4158.000000pt" viewBox="0 0 4078.000000 4158.000000"
 preserveAspectRatio="xMidYMid meet">

<g transform="translate(0.000000,4158.000000) scale(0.100000,-0.100000)"
fill="#000000" stroke="none">
<path d="M20550 41408 c-194 -501 -602 -1458 -796 -1867 -24 -51 -44 -95 -44
-96 0 -2 -26 -59 -58 -127 -33 -68 -81 -170 -108 -228 -99 -212 -547 -1103
-694 -1380 -1071 -2017 -2258 -3839 -3670 -5630 -650 -826 -1324 -1607 -2114
-2450 -214 -228 -1145 -1165 -1376 -1386 -1871 -1780 -3863 -3324 -6025 -4669
-1734 -1079 -3580 -2024 -5460 -2795 -110 -45 -201 -83 -202 -84 -1 -1 62 -28
140 -60 420 -174 913 -385 1207 -519 389 -177 421 -192 805 -374 291 -138 948
-470 1260 -636 428 -228 468 -249 507 -274 21 -13 39 -23 42 -23 3 0 308 -170
428 -239 21 -11 54 -30 73 -41 19 -11 50 -28 67 -39 18 -10 80 -45 138 -78
141 -81 542 -320 710 -423 74 -45 155 -95 180 -110 56 -33 350 -218 525 -330
376 -239 1052 -696 1485 -1004 2630 -1870 5056 -4125 7091 -6591 2426 -2939
4372 -6202 5772 -9674 l114 -282 21 53 c11 29 36 94 55 143 70 180 187 473
237 595 29 69 61 148 72 175 11 28 26 64 33 80 8 17 26 59 40 95 25 60 53 125
75 175 5 11 18 43 30 70 12 28 25 59 30 70 5 11 50 112 99 225 92 211 164 372
221 495 18 39 44 95 57 125 30 64 99 212 186 395 82 172 539 1086 622 1245
104 197 214 401 265 495 15 28 42 77 60 110 499 917 1134 1959 1745 2865 2211
3280 4894 6153 8020 8586 2453 1909 5206 3536 8050 4756 154 66 287 124 295
128 11 7 -1 16 -45 35 -76 34 -89 39 -150 65 -27 12 -59 25 -70 30 -11 5 -40
18 -65 28 -182 79 -204 88 -325 142 -27 12 -63 28 -80 35 -16 8 -70 32 -118
54 -49 23 -90 41 -92 41 -2 0 -45 20 -97 44 -51 24 -118 55 -148 68 -149 69
-242 113 -515 243 -163 77 -775 383 -960 480 -231 120 -480 252 -655 348 -30
16 -80 43 -110 60 -620 338 -1386 789 -1965 1157 -71 45 -164 104 -205 130
-41 26 -187 121 -325 211 -1877 1232 -3559 2564 -5223 4137 -204 193 -1023
1008 -1238 1232 -2925 3051 -5344 6647 -7056 10490 -210 470 -485 1126 -634
1508 -32 83 -62 152 -65 152 -3 0 -34 -73 -69 -162z"/>
</g>
</svg>
